<?xml version="1.0" encoding="UTF-8" standalone="no"?>
<!DOCTYPE svg PUBLIC "-//W3C//DTD SVG 1.1//EN" "http://www.w3.org/Graphics/SVG/1.1/DTD/svg11.dtd">
<svg width="100%" height="100%" viewBox="0 0 3060 3707" version="1.1" xmlns="http://www.w3.org/2000/svg" xmlns:xlink="http://www.w3.org/1999/xlink" xml:space="preserve" xmlns:serif="http://www.serif.com/" style="fill-rule:evenodd;clip-rule:evenodd;stroke-linejoin:round;stroke-miterlimit:2;">
    <g transform="matrix(1,0,0,1,-306.565263,-135.731839)">
        <g transform="matrix(0.970644,0,0,0.970644,-180.265507,39.671864)">
            <path d="M501.554,1965.632L501.554,98.965L1120.221,98.965L1226.887,1501.632L1226.887,1773.632L1290.887,1773.632L1290.887,1501.632L1397.554,98.965L2016.221,98.965L2016.221,1965.632L1696.221,1965.632L1696.221,717.632L1728.221,290.965L1664.221,290.965L1525.554,1965.632L997.554,1965.632L853.554,290.965L789.554,290.965L821.554,717.632L821.554,1965.632L501.554,1965.632Z" style="fill:white;fill-rule:nonzero;"/>
        </g>
        <g transform="matrix(0.970644,0,0,0.970644,-192.80383,39.671864)">
            <path d="M2114.887,1965.632L2560.221,98.965L3221.554,98.965L3666.887,1965.632L3298.887,1965.632L3208.221,1565.632L2573.554,1565.632L2482.887,1965.632L2114.887,1965.632ZM2648.221,1229.632L3130.887,1229.632L2914.887,274.965L2866.887,274.965L2648.221,1229.632Z" style="fill:white;"/>
        </g>
        <g transform="matrix(0.970644,0,0,0.970644,-180.265507,-135.934819)">
            <path d="M605.554,4098.965L605.554,2232.298L1293.554,2232.298L1512.221,3922.965L1560.221,3922.965L1560.221,2232.298L1912.221,2232.298L1912.221,4098.965L1224.221,4098.965L1005.554,2408.298L957.554,2408.298L957.554,4098.965L605.554,4098.965Z" style="fill:white;fill-rule:nonzero;"/>
        </g>
        <g transform="matrix(0.933312,0,0,0.933312,-86.174025,-17.753935)">
            <path d="M2890.887,4136.298C2677.554,4136.298 2509.554,4070.965 2386.887,3940.298C2264.221,3809.632 2202.887,3620.743 2202.887,3373.632L2202.887,2957.632C2202.887,2717.632 2264.221,2530.521 2386.887,2396.298C2509.554,2262.076 2677.554,2194.965 2890.887,2194.965C3104.221,2194.965 3272.221,2262.076 3394.887,2396.298C3517.554,2530.521 3578.887,2717.632 3578.887,2957.632L3578.887,3373.632C3578.887,3620.743 3517.554,3809.632 3394.887,3940.298C3272.221,4070.965 3104.221,4136.298 2890.887,4136.298ZM2890.887,3816.298C3018.887,3816.298 3106.887,3777.187 3154.887,3698.965C3202.887,3620.743 3226.887,3519.41 3226.887,3394.965L3226.887,2936.298C3226.887,2858.076 3215.332,2786.965 3192.221,2722.965C3169.11,2658.965 3133.11,2608.298 3084.221,2570.965C3035.332,2533.632 2970.887,2514.965 2890.887,2514.965C2810.887,2514.965 2745.999,2533.632 2696.221,2570.965C2646.443,2608.298 2610.443,2658.965 2588.221,2722.965C2565.999,2786.965 2554.887,2858.076 2554.887,2936.298L2554.887,3394.965C2554.887,3519.41 2578.887,3620.743 2626.887,3698.965C2674.887,3777.187 2762.887,3816.298 2890.887,3816.298Z" style="fill:white;"/>
        </g>
    </g>
</svg>
